<svg xmlns="http://www.w3.org/2000/svg" xmlns:xlink="http://www.w3.org/1999/xlink" width="80" zoomAndPan="magnify" viewBox="0 0 60 30.000001" height="40" preserveAspectRatio="xMidYMid meet" version="1.0"><defs><g/></defs><g fill="#db4a2b" fill-opacity="1"><g transform="translate(-0.175977, 25.87033)"><g><path d="M 14.8125 -24.671875 C 17.132812 -24.671875 19.222656 -24.316406 21.078125 -23.609375 C 22.929688 -22.910156 24.40625 -21.875 25.5 -20.5 C 26.59375 -19.125 27.140625 -17.445312 27.140625 -15.46875 L 19.703125 -15.46875 C 19.703125 -16.476562 19.253906 -17.296875 18.359375 -17.921875 C 17.472656 -18.546875 16.394531 -18.859375 15.125 -18.859375 C 13.289062 -18.859375 11.898438 -18.367188 10.953125 -17.390625 C 10.015625 -16.421875 9.546875 -15.039062 9.546875 -13.25 L 9.546875 -11 C 9.546875 -9.207031 10.015625 -7.820312 10.953125 -6.84375 C 11.898438 -5.875 13.289062 -5.390625 15.125 -5.390625 C 16.394531 -5.390625 17.472656 -5.6875 18.359375 -6.28125 C 19.253906 -6.882812 19.703125 -7.65625 19.703125 -8.59375 L 14.203125 -8.59375 L 14.203125 -13.53125 L 27.140625 -13.53125 L 27.140625 0 L 23.125 0 L 22.34375 -2.390625 C 20.132812 -0.515625 17.242188 0.421875 13.671875 0.421875 C 9.660156 0.421875 6.644531 -0.628906 4.625 -2.734375 C 2.601562 -4.835938 1.59375 -7.96875 1.59375 -12.125 C 1.59375 -16.238281 2.734375 -19.359375 5.015625 -21.484375 C 7.304688 -23.609375 10.570312 -24.671875 14.8125 -24.671875 Z M 14.8125 -24.671875 "/></g></g></g><g fill="#db4a2b" fill-opacity="1"><g transform="translate(27.174086, 25.87033)"><g><path d="M 23.4375 0 L 23.4375 -8.734375 C 23.4375 -9.816406 23.476562 -10.925781 23.5625 -12.0625 C 23.644531 -13.207031 23.734375 -14.164062 23.828125 -14.9375 C 23.921875 -15.71875 23.976562 -16.210938 24 -16.421875 L 23.859375 -16.421875 L 19.390625 0 L 13.296875 0 L 8.78125 -16.390625 L 8.640625 -16.390625 C 8.660156 -16.179688 8.722656 -15.691406 8.828125 -14.921875 C 8.929688 -14.160156 9.03125 -13.207031 9.125 -12.0625 C 9.21875 -10.925781 9.265625 -9.816406 9.265625 -8.734375 L 9.265625 0 L 2.109375 0 L 2.109375 -24.25 L 13.109375 -24.25 L 16.78125 -10.25 L 16.921875 -10.25 L 20.546875 -24.25 L 31.15625 -24.25 L 31.15625 0 Z M 23.4375 0 "/></g></g></g></svg>